<svg xmlns:rdf="http://www.w3.org/1999/02/22-rdf-syntax-ns#" xmlns="http://www.w3.org/2000/svg" xml:space="preserve" height="120" width="120" version="1.1" xmlns:cc="http://creativecommons.org/ns#" xmlns:dc="http://purl.org/dc/elements/1.1/" viewBox="0 0 120 120"><defs><clipPath id="clipPath40" clipPathUnits="userSpaceOnUse"><path d="m0 960h560v-960h-560v960z"/></clipPath></defs><g transform="matrix(.93747 0 0 -.93747 5.9995 120.37)"><g clip-path="url(#clipPath40)"><g transform="translate(-46.001,-709.32)"><g transform="translate(148.45,791.82)"><path fill="#ea9b3d" d="m0 0c0-23.583-19.118-42.701-42.701-42.701s-42.701 19.118-42.701 42.701 19.118 42.701 42.701 42.701 42.701-19.118 42.701-42.701"/></g><g transform="translate(158.01,795.96)"><path fill="#fff" d="m0 0c-1.695 2.685-5.245 3.489-7.93 1.795-0.039-0.025-0.074-0.054-0.113-0.08l-0.004 0.006-14.741-9.3c-2.686-1.694-3.489-5.244-1.795-7.93 1.694-2.685 5.245-3.489 7.93-1.795l14.741 9.301-0.004 0.006c0.04 0.024 0.081 0.043 0.121 0.068 2.685 1.693 3.489 5.244 1.795 7.929"/></g><g transform="translate(158.52,782.79)"><path fill="#fff" d="m0 0c-1.694 2.686-5.244 3.489-7.929 1.795-0.04-0.025-0.075-0.054-0.114-0.08l-0.004 0.006-8.991-5.676c-2.686-1.694-3.489-5.245-1.795-7.93s5.244-3.489 7.929-1.794l8.992 5.676-0.004 0.006c0.04 0.024 0.081 0.043 0.121 0.068 2.685 1.694 3.489 5.244 1.795 7.929"/></g><g transform="translate(159.32,810.32)"><path fill="#fff" d="m0 0c-1.694 2.685-5.244 3.489-7.929 1.795-0.04-0.025-0.075-0.054-0.114-0.08l-0.004 0.006-20.491-12.787c-2.685-1.694-3.489-5.244-1.795-7.929 1.695-2.686 5.245-3.489 7.93-1.795l20.491 12.787-0.003 0.006c0.039 0.024 0.081 0.043 0.12 0.068 2.685 1.694 3.489 5.244 1.795 7.929"/></g><g transform="translate(46.993,797.1)"><path fill="#fff" d="m0 0 29.675 15.347s5.916 1.873 8.38-2.169c2.465-4.042 0.296-7.295-2.957-9.464l-18.732-9.662-16.366 5.948z"/></g><g transform="translate(78.542,709.72)"><path fill="#3a3a3a" d="m0 0c-0.436 0-0.789 0.353-0.789 0.789v22.091l-11.495 13.621c-0.056 0.066-0.1 0.14-0.131 0.219l-19.867 50.373c-0.149 0.377 0.012 0.804 0.371 0.99l29.675 15.347c0.04 0.021 0.082 0.038 0.125 0.052 0.265 0.084 6.536 2.008 9.291-2.511 2.315-3.794 1.151-7.633-3.193-10.529-0.025-0.016-0.05-0.031-0.076-0.045l-18.732-9.661c-0.388-0.2-0.863-0.048-1.063 0.339-0.199 0.387-0.047 0.863 0.34 1.062l18.692 9.642c2.531 1.698 5.033 4.523 2.686 8.373-1.999 3.277-6.824 2.014-7.411 1.845l-28.976-14.995 19.558-49.589 11.598-13.743c0.12-0.142 0.186-0.322 0.186-0.509v-22.379c0-0.436-0.353-0.789-0.789-0.789"/></g><g transform="translate(158.52,823.55)"><path fill="#fff" d="m0 0c-1.694 2.685-5.244 3.489-7.929 1.795-0.04-0.025-0.075-0.054-0.114-0.08l-0.004 0.006-14.741-9.3c-2.686-1.694-3.489-5.245-1.795-7.93s5.245-3.489 7.93-1.795l14.741 9.301-0.004 0.006c0.04 0.023 0.081 0.043 0.121 0.067 2.685 1.694 3.489 5.245 1.795 7.93"/></g><g transform="translate(150.81,824.55)"><path fill="#3a3a3a" d="m0 0-14.654-9.245c-1.121-0.707-1.899-1.808-2.192-3.1-0.292-1.292-0.064-2.621 0.643-3.742 0.914-1.449 2.484-2.314 4.201-2.314 0.933 0 1.847 0.265 2.641 0.766l14.655 9.246c0.03 0.025 0.062 0.048 0.096 0.068 0.03 0.018 0.059 0.034 0.089 0.05 2.331 1.469 3.026 4.538 1.567 6.852-0.915 1.448-2.485 2.314-4.201 2.314-0.933 0-1.847-0.265-2.641-0.766-0.044-0.033-0.071-0.052-0.1-0.071-0.034-0.022-0.068-0.041-0.104-0.058m-12.002-19.979c-2.261 0-4.33 1.141-5.535 3.051-0.932 1.477-1.233 3.228-0.847 4.931 0.385 1.703 1.411 3.154 2.888 4.086l14.741 9.3c0.017 0.011 0.034 0.02 0.051 0.03 0.025 0.017 0.047 0.032 0.069 0.046 1.044 0.658 2.248 1.007 3.48 1.007 2.261 0 4.33-1.14 5.535-3.05 1.923-3.049 1.007-7.094-2.041-9.017-0.023-0.015-0.045-0.028-0.068-0.04-0.016-0.012-0.032-0.023-0.049-0.034l-14.742-9.301c-1.046-0.66-2.25-1.009-3.482-1.009"/></g><g transform="translate(150.3,796.96)"><path fill="#3a3a3a" d="m0 0-14.653-9.245c-1.121-0.707-1.899-1.808-2.192-3.1-0.292-1.292-0.064-2.621 0.643-3.742 0.914-1.449 2.485-2.314 4.201-2.314 0.934 0 1.847 0.265 2.641 0.766l14.655 9.246c0.029 0.025 0.061 0.047 0.094 0.067 0.031 0.019 0.062 0.036 0.092 0.052 2.33 1.468 3.025 4.538 1.566 6.851-0.914 1.449-2.485 2.314-4.201 2.314-0.933 0-1.847-0.265-2.641-0.766-0.044-0.032-0.071-0.052-0.1-0.071-0.034-0.022-0.069-0.041-0.105-0.058m-12.001-19.978c-2.261 0-4.33 1.14-5.535 3.05-0.932 1.477-1.233 3.228-0.847 4.931 0.385 1.703 1.411 3.155 2.888 4.086l14.742 9.301c0.017 0.01 0.034 0.02 0.052 0.03 0.024 0.017 0.045 0.031 0.067 0.045 1.044 0.659 2.248 1.007 3.48 1.007 2.261 0 4.33-1.14 5.535-3.049 1.923-3.05 1.008-7.095-2.041-9.018-0.023-0.014-0.045-0.027-0.067-0.04-0.016-0.012-0.033-0.023-0.05-0.034l-14.741-9.3c-1.047-0.66-2.251-1.009-3.483-1.009"/></g><g transform="translate(150.81,783.79)"><path fill="#3a3a3a" d="m0 0-8.903-5.621c-1.121-0.707-1.9-1.807-2.192-3.1-0.293-1.292-0.064-2.621 0.643-3.741 0.914-1.449 2.484-2.315 4.2-2.315 0.934 0 1.847 0.265 2.641 0.766l8.906 5.622c0.03 0.025 0.062 0.048 0.097 0.069 0.029 0.018 0.059 0.034 0.089 0.05 2.33 1.468 3.025 4.537 1.566 6.851-0.915 1.449-2.485 2.314-4.201 2.314-0.934 0-1.847-0.265-2.641-0.766-0.044-0.032-0.071-0.051-0.098-0.069-0.034-0.023-0.07-0.043-0.107-0.06m-6.252-16.354c-2.261 0-4.33 1.14-5.534 3.05-0.932 1.477-1.233 3.228-0.848 4.931 0.386 1.704 1.412 3.155 2.889 4.087l8.991 5.676c0.017 0.01 0.035 0.02 0.052 0.03 0.025 0.017 0.046 0.031 0.068 0.045 1.044 0.659 2.248 1.008 3.48 1.008 2.261 0 4.33-1.141 5.535-3.05 1.923-3.049 1.007-7.095-2.041-9.018-0.024-0.015-0.046-0.028-0.068-0.04-0.016-0.012-0.032-0.023-0.049-0.033l-8.992-5.677c-1.046-0.66-2.251-1.009-3.483-1.009"/></g><g transform="translate(151.61,811.31)"><path fill="#3a3a3a" d="m0 0-20.402-12.731c-1.117-0.705-1.895-1.806-2.188-3.098-0.292-1.292-0.064-2.621 0.643-3.742 0.914-1.449 2.484-2.314 4.201-2.314 0.933 0 1.846 0.265 2.641 0.766l20.407 12.735c0.029 0.023 0.059 0.045 0.092 0.065 0.03 0.018 0.061 0.035 0.092 0.052 2.33 1.468 3.024 4.537 1.565 6.85-0.914 1.449-2.484 2.314-4.2 2.314-0.934 0-1.847-0.264-2.641-0.765-0.044-0.032-0.069-0.051-0.095-0.068-0.037-0.025-0.075-0.046-0.115-0.064m-17.746-23.462h-0.001c-2.26 0-4.329 1.14-5.534 3.049-0.932 1.478-1.233 3.229-0.847 4.932 0.385 1.703 1.411 3.154 2.888 4.086l20.494 12.789c0.016 0.01 0.033 0.02 0.049 0.028 0.024 0.017 0.046 0.032 0.067 0.045 1.045 0.659 2.249 1.008 3.481 1.008 2.261 0 4.33-1.14 5.534-3.05 1.924-3.049 1.008-7.094-2.041-9.018-0.022-0.014-0.045-0.027-0.068-0.04-0.017-0.012-0.034-0.024-0.052-0.035l-20.491-12.788c-1.043-0.658-2.247-1.006-3.479-1.006"/></g><g transform="translate(116.6,709.81)"><path fill="#3a3a3a" d="m0 0c-0.436 0-0.789 0.353-0.789 0.789v22.346c0 0.301 0.171 0.576 0.442 0.709l11.745 5.759c8.119 11.696 20.233 29.345 21.012 31.012 0.048 0.238 0.205 0.451 0.443 0.561 0.397 0.182 0.864 0.009 1.047-0.386 0.236-0.513 0.266-0.579-3.281-5.904-1.755-2.635-4.218-6.269-7.323-10.803-5.283-7.717-10.665-15.47-10.719-15.548-0.076-0.11-0.18-0.199-0.301-0.258l-11.487-5.633v-21.855c0-0.436-0.353-0.789-0.789-0.789"/></g><g transform="translate(107.51,750.6)"><path fill="#3a3a3a" d="m0 0c-23.184 0-42.291 18.12-43.497 41.252-0.023 0.435 0.311 0.806 0.746 0.829 0.438 0.027 0.806-0.312 0.829-0.747 1.163-22.293 19.577-39.757 41.922-39.757 13.394 0 25.672 6.169 33.685 16.924 0.261 0.35 0.755 0.422 1.104 0.162 0.349-0.261 0.422-0.755 0.161-1.104-8.313-11.159-21.052-17.559-34.95-17.559"/></g><g transform="translate(66.86,806.7)"><path fill="#3a3a3a" d="m0 0c-0.081 0-0.164 0.013-0.246 0.039-0.414 0.136-0.639 0.582-0.504 0.996 5.878 17.931 22.515 29.978 41.399 29.978 13.853 0 26.567-6.367 34.883-17.468 0.261-0.349 0.19-0.843-0.158-1.104-0.349-0.261-0.843-0.19-1.104 0.158-8.016 10.7-20.27 16.837-33.621 16.837-18.2 0-34.235-11.611-39.9-28.893-0.109-0.332-0.417-0.543-0.749-0.543"/></g><g transform="translate(106.91,770.32)"><path fill="#3a3a3a" d="m0 0c-12.154 0-12.294 12.354-12.294 12.478 0 0.436 0.353 0.789 0.788 0.789 0.436 0 0.789-0.353 0.789-0.789 0.001-0.444 0.152-10.901 10.717-10.901 10.595 0 11.159 10.399 11.178 10.842-0.001 0.022-0.013 4.942-3.204 8.148-1.857 1.866-4.447 2.812-7.698 2.812-12.427 0-12.57 12.537-12.57 12.663 0 0.123 0.141 12.294 12.386 12.294 12.22 0 12.75-12.146 12.754-12.269 0.014-0.435-0.328-0.799-0.763-0.813-0.444-0.001-0.799 0.327-0.813 0.762-0.016 0.443-0.501 10.743-11.178 10.743-10.655 0-10.808-10.28-10.809-10.718 0.001-0.45 0.156-11.084 10.993-11.084 3.693 0 6.662-1.106 8.827-3.288 3.653-3.681 3.653-9.062 3.652-9.289-0.006-0.148-0.632-12.38-12.755-12.38"/></g><g transform="translate(106.54,766.6)"><path fill="#3a3a3a" d="m0 0c-0.436 0-0.789 0.353-0.789 0.789v53.161c0 0.436 0.353 0.789 0.789 0.789s0.789-0.353 0.789-0.789v-53.161c0-0.436-0.353-0.789-0.789-0.789"/></g><g transform="translate(107.51,831.97)"><path fill="#3a3a3a" d="m0 0c-0.436 0-0.789 0.353-0.789 0.789v4.172c0 0.435 0.353 0.789 0.789 0.789s0.789-0.354 0.789-0.789v-4.172c0-0.436-0.353-0.789-0.789-0.789"/></g><g transform="translate(107.51,750.6)"><path fill="#3a3a3a" d="m0 0c-0.436 0-0.789 0.353-0.789 0.789v4.172c0 0.436 0.353 0.789 0.789 0.789s0.789-0.353 0.789-0.789v-4.172c0-0.436-0.353-0.789-0.789-0.789"/></g><g transform="translate(80.217,820.66)"><path fill="#3a3a3a" d="m0 0c-0.202 0-0.404 0.077-0.558 0.231l-2.95 2.95c-0.308 0.308-0.308 0.808 0 1.116s0.808 0.308 1.116 0l2.95-2.951c0.308-0.308 0.308-0.807 0-1.115-0.154-0.154-0.356-0.231-0.558-0.231"/></g><g transform="translate(137.75,763.13)"><path fill="#3a3a3a" d="m0 0c-0.202 0-0.404 0.077-0.558 0.231l-2.95 2.95c-0.308 0.308-0.308 0.808 0 1.116s0.808 0.308 1.115 0l2.951-2.951c0.308-0.308 0.308-0.807 0-1.115-0.154-0.154-0.356-0.231-0.558-0.231"/></g><g transform="translate(134.8,820.66)"><path fill="#3a3a3a" d="m0 0c-0.202 0-0.404 0.077-0.558 0.231-0.308 0.308-0.308 0.808 0 1.115l2.95 2.95c0.308 0.308 0.808 0.308 1.116 0s0.308-0.807 0-1.115l-2.95-2.95c-0.154-0.154-0.356-0.231-0.558-0.231"/></g><g transform="translate(77.267,763.13)"><path fill="#3a3a3a" d="m0 0c-0.202 0-0.404 0.077-0.558 0.231-0.308 0.308-0.308 0.807 0 1.115l2.951 2.951c0.307 0.308 0.807 0.308 1.115 0s0.308-0.808 0-1.116l-2.95-2.95c-0.154-0.154-0.356-0.231-0.558-0.231"/></g><g transform="translate(92.657,828.99)"><path fill="#3a3a3a" d="m0 0c-0.309 0-0.602 0.183-0.728 0.485l-1.606 3.851c-0.167 0.402 0.023 0.864 0.425 1.032 0.402 0.166 0.863-0.023 1.031-0.425l1.606-3.851c0.167-0.402-0.023-0.863-0.425-1.031-0.099-0.041-0.202-0.061-0.303-0.061"/></g><g transform="translate(123.97,753.89)"><path fill="#3a3a3a" d="m0 0c-0.309 0-0.602 0.183-0.728 0.485l-1.606 3.852c-0.167 0.402 0.023 0.863 0.425 1.031 0.402 0.167 0.863-0.023 1.031-0.424l1.606-3.852c0.167-0.402-0.023-0.863-0.425-1.031-0.099-0.041-0.202-0.061-0.303-0.061"/></g><g transform="translate(122.2,829.06)"><path fill="#3a3a3a" d="m0 0c-0.1 0-0.202 0.019-0.3 0.06-0.403 0.165-0.595 0.626-0.429 1.029l1.588 3.858c0.166 0.403 0.626 0.595 1.029 0.429s0.595-0.627 0.43-1.029l-1.588-3.858c-0.126-0.305-0.42-0.489-0.73-0.489"/></g><g transform="translate(91.233,753.82)"><path fill="#3a3a3a" d="m0 0c-0.1 0-0.202 0.019-0.3 0.06-0.403 0.165-0.595 0.626-0.429 1.029l1.588 3.859c0.165 0.402 0.626 0.595 1.029 0.429s0.595-0.627 0.43-1.03l-1.588-3.858c-0.126-0.305-0.42-0.489-0.73-0.489"/></g><g transform="translate(134.8,820.66)"><path fill="#3a3a3a" d="m0 0c-0.202 0-0.404 0.077-0.558 0.231-0.308 0.308-0.308 0.807 0 1.115l2.951 2.95c0.308 0.308 0.807 0.308 1.115 0s0.308-0.807 0-1.115l-2.95-2.95c-0.154-0.154-0.356-0.231-0.558-0.231"/></g><g transform="translate(77.267,763.13)"><path fill="#3a3a3a" d="m0 0c-0.202 0-0.404 0.077-0.558 0.231-0.308 0.308-0.308 0.807 0 1.115l2.951 2.951c0.307 0.308 0.807 0.308 1.115 0s0.308-0.808 0-1.116l-2.95-2.95c-0.154-0.154-0.356-0.231-0.558-0.231"/></g><g transform="translate(137.75,763.13)"><path fill="#3a3a3a" d="m0 0c-0.202 0-0.404 0.077-0.558 0.231l-2.95 2.95c-0.308 0.308-0.308 0.807 0 1.115s0.808 0.308 1.116 0l2.95-2.95c0.308-0.308 0.308-0.807 0-1.115-0.154-0.154-0.356-0.231-0.558-0.231"/></g><g transform="translate(80.218,820.66)"><path fill="#3a3a3a" d="m0 0c-0.202 0-0.404 0.077-0.558 0.231l-2.95 2.95c-0.308 0.308-0.308 0.808 0 1.116s0.808 0.308 1.115 0l2.951-2.951c0.308-0.307 0.308-0.807 0-1.115-0.154-0.154-0.356-0.231-0.558-0.231"/></g><g transform="translate(68.034,776.91)"><path fill="#3a3a3a" d="m0 0c-0.309 0-0.602 0.183-0.728 0.485-0.168 0.403 0.022 0.864 0.424 1.032l3.851 1.605c0.403 0.168 0.864-0.022 1.032-0.424 0.167-0.402-0.023-0.864-0.425-1.032l-3.851-1.605c-0.099-0.041-0.202-0.061-0.303-0.061"/></g><g transform="translate(70.642,808.54)"><path fill="#3a3a3a" d="m0 0c-0.1 0-0.202 0.019-0.3 0.059l-2.684 1.105c-0.403 0.166-0.595 0.627-0.429 1.03 0.166 0.402 0.626 0.595 1.029 0.429l2.685-1.105c0.402-0.166 0.595-0.627 0.429-1.029-0.126-0.305-0.42-0.489-0.73-0.489"/></g><g transform="translate(107.11,759.9)"><path fill="#3a3a3a" d="m0 0c-6.653 0-13.168 1.928-18.864 5.657-10.286 6.732-16.261 18.547-15.595 30.836 0.024 0.435 0.395 0.768 0.831 0.744 0.435-0.023 0.768-0.395 0.744-0.83-0.636-11.728 5.067-23.005 14.883-29.43 7.376-4.827 16.189-6.493 24.817-4.691 8.628 1.801 16.038 6.855 20.865 14.23 0.238 0.365 0.727 0.467 1.092 0.228 0.364-0.238 0.466-0.727 0.228-1.091-5.058-7.728-12.822-13.024-21.863-14.911-2.376-0.497-4.766-0.742-7.138-0.742"/></g><g transform="translate(78.91,812.2)"><path fill="#3a3a3a" d="m0 0c-0.148 0-0.298 0.042-0.431 0.129-0.365 0.238-0.467 0.727-0.228 1.092 10.441 15.952 31.913 20.436 47.865 9.995 3.422-2.239 6.385-5.024 8.805-8.275 0.26-0.349 0.188-0.843-0.162-1.104-0.349-0.259-0.843-0.188-1.103 0.162-2.31 3.102-5.137 5.759-8.404 7.898-7.375 4.826-16.188 6.492-24.816 4.691-8.628-1.802-16.038-6.856-20.865-14.231-0.152-0.231-0.404-0.357-0.661-0.357"/></g></g></g></g></svg>
