<svg xmlns:rdf="http://www.w3.org/1999/02/22-rdf-syntax-ns#" xmlns="http://www.w3.org/2000/svg" xml:space="preserve" height="120" width="120" version="1.1" xmlns:cc="http://creativecommons.org/ns#" xmlns:dc="http://purl.org/dc/elements/1.1/" viewBox="0 0 120 119.99776"><defs><clipPath id="clipPath40" clipPathUnits="userSpaceOnUse"><path d="m0 960h560v-960h-560v960z"/></clipPath></defs><g transform="matrix(.93749 0 0 -.93749 1.1465e-7 119.94)"><g clip-path="url(#clipPath40)"><g transform="translate(-217.72,-702.21)"><g transform="translate(289.56,817.99)"><path fill="#e25134" d="m0 0c0-5.113-4.145-9.258-9.257-9.258-5.113 0-9.258 4.145-9.258 9.258s4.145 9.258 9.258 9.258c5.112 0 9.257-4.145 9.257-9.258"/></g><g transform="translate(264.95,780.64)"><path fill="#e25134" d="m0 0c0 13.898 6.872 25.164 15.349 25.164 8.478 0 15.349-11.266 15.349-25.164h-30.698z"/></g><g transform="translate(242.32,768.05)"><path fill="#259bbf" d="m0 0c0-5.113-4.145-9.258-9.257-9.258-5.113 0-9.258 4.145-9.258 9.258s4.145 9.258 9.258 9.258c5.112 0 9.257-4.145 9.257-9.258"/></g><g transform="translate(217.72,730.7)"><path fill="#259bbf" d="m0 0c0 13.898 6.872 25.165 15.349 25.165 8.478 0 15.349-11.267 15.349-25.165h-30.698z"/></g><g transform="translate(336.8,768.05)"><path fill="#259bbf" d="m0 0c0-5.113-4.145-9.258-9.258-9.258-5.112 0-9.257 4.145-9.257 9.258s4.145 9.258 9.257 9.258c5.113 0 9.258-4.145 9.258-9.258"/></g><g transform="translate(312.19,730.7)"><path fill="#259bbf" d="m0 0c0 13.898 6.872 25.165 15.349 25.165 8.478 0 15.349-11.267 15.349-25.165h-30.698z"/></g><g transform="translate(289.56,739.56)"><path fill="#ea9b3d" d="m0 0c0-5.113-4.145-9.257-9.258-9.257-5.112 0-9.257 4.144-9.257 9.257s4.145 9.258 9.257 9.258c5.113 0 9.258-4.145 9.258-9.258"/></g><g transform="translate(264.95,702.21)"><path fill="#ea9b3d" d="m0 0c0 13.898 6.872 25.165 15.349 25.165 8.478 0 15.349-11.267 15.349-25.165h-30.698z"/></g><g transform="translate(282.35,810)"><path fill="#3a3a3a" d="m0 0c-5.536 0-10.04 4.504-10.04 10.04 0 0.432 0.35 0.782 0.783 0.782 0.432 0 0.782-0.35 0.782-0.782 0-4.673 3.802-8.475 8.475-8.475s8.475 3.802 8.475 8.475-3.802 8.475-8.475 8.475c-0.432 0-0.782 0.35-0.782 0.782s0.35 0.783 0.782 0.783c5.536 0 10.04-4.504 10.04-10.04s-4.504-10.04-10.04-10.04"/></g><g transform="translate(297.7,781.91)"><path fill="#3a3a3a" d="m0 0h-30.698c-0.432 0-0.783 0.35-0.783 0.782s0.351 0.783 0.783 0.783h29.908c-0.247 13.083-6.683 23.599-14.559 23.599-0.432 0-0.782 0.351-0.782 0.783s0.35 0.782 0.782 0.782c8.895 0 16.131-11.64 16.131-25.947 0-0.432-0.35-0.782-0.782-0.782"/></g><g transform="translate(235.11,760.06)"><path fill="#3a3a3a" d="m0 0c-5.536 0-10.04 4.504-10.04 10.04 0 0.432 0.35 0.782 0.783 0.782 0.432 0 0.782-0.35 0.782-0.782 0-4.673 3.802-8.475 8.475-8.475s8.475 3.802 8.475 8.475-3.802 8.475-8.475 8.475c-0.432 0-0.782 0.35-0.782 0.782s0.35 0.783 0.782 0.783c5.536 0 10.04-4.504 10.04-10.04s-4.504-10.04-10.04-10.04"/></g><g transform="translate(250.46,731.97)"><path fill="#3a3a3a" d="m0 0h-30.698c-0.432 0-0.783 0.35-0.783 0.782s0.351 0.783 0.783 0.783h29.908c-0.247 13.083-6.683 23.6-14.559 23.6-0.432 0-0.782 0.35-0.782 0.782s0.35 0.782 0.782 0.782c8.895 0 16.131-11.639 16.131-25.947 0-0.432-0.35-0.782-0.782-0.782"/></g><g transform="translate(329.59,760.06)"><path fill="#3a3a3a" d="m0 0c-5.536 0-10.039 4.504-10.039 10.04 0 0.432 0.35 0.782 0.782 0.782s0.782-0.35 0.782-0.782c0-4.673 3.802-8.475 8.475-8.475s8.476 3.802 8.476 8.475-3.803 8.475-8.476 8.475c-0.432 0-0.782 0.35-0.782 0.782s0.35 0.783 0.782 0.783c5.536 0 10.04-4.504 10.04-10.04s-4.504-10.04-10.04-10.04"/></g><g transform="translate(344.94,731.97)"><path fill="#3a3a3a" d="m0 0h-30.698c-0.432 0-0.782 0.35-0.782 0.782s0.35 0.783 0.782 0.783h29.908c-0.247 13.083-6.683 23.6-14.559 23.6-0.432 0-0.782 0.35-0.782 0.782s0.35 0.782 0.782 0.782c8.895 0 16.131-11.639 16.131-25.947 0-0.432-0.35-0.782-0.782-0.782"/></g><g transform="translate(282.35,750.08)"><path fill="#3a3a3a" d="m0 0c-4.673 0-8.475-3.802-8.475-8.475s3.802-8.475 8.475-8.475 8.476 3.802 8.476 8.475-3.803 8.475-8.476 8.475m0-18.515c-5.536 0-10.039 4.504-10.039 10.04s4.503 10.04 10.039 10.04 10.04-4.504 10.04-10.04-4.504-10.04-10.04-10.04"/></g><g transform="translate(297.7,703.47)"><path fill="#3a3a3a" d="m0 0h-30.698c-0.432 0-0.782 0.35-0.782 0.782s0.35 0.783 0.782 0.783h29.908c-0.247 13.083-6.683 23.6-14.559 23.6-0.432 0-0.782 0.35-0.782 0.782s0.35 0.782 0.782 0.782c8.895 0 16.131-11.639 16.131-25.947 0-0.432-0.35-0.782-0.782-0.782"/></g><g transform="translate(282.3,750.08)"><path fill="#3a3a3a" d="m0 0c-0.432 0-0.782 0.35-0.782 0.782v31.824c0 0.432 0.35 0.783 0.782 0.783s0.782-0.351 0.782-0.783v-31.824c0-0.432-0.35-0.782-0.782-0.782"/></g><g transform="translate(273.09,740.82)"><path fill="#3a3a3a" d="m0 0c-0.161 0-0.324 0.05-0.464 0.153l-30.769 22.689c-0.347 0.256-0.421 0.746-0.165 1.094 0.257 0.348 0.746 0.421 1.094 0.165l30.769-22.689c0.348-0.256 0.422-0.746 0.165-1.094-0.153-0.208-0.39-0.318-0.63-0.318"/></g><g transform="translate(291.61,740.82)"><path fill="#3a3a3a" d="m0 0c-0.24 0-0.477 0.11-0.63 0.318-0.257 0.348-0.183 0.838 0.165 1.094l30.769 22.689c0.347 0.256 0.837 0.183 1.094-0.165 0.256-0.348 0.182-0.838-0.166-1.094l-30.768-22.689c-0.14-0.103-0.303-0.153-0.464-0.153"/></g></g></g></g></svg>
